PathFileType	4	(X/Y/Z)	C:/Users/opensim2020/Desktop/walking_exp_matlab/subject01_walking08_straight_04.trc	
DataRate	CameraRate	NumFrames	NumMarkers	Units	OrigDataRate	OrigDataStartFrame	OrigNumFrames	
100.00	100.00	5	43	mm	100.00	3659	256	
Frame#	Time	LFHD			RFHD			LBHD			RBHD			C7			T10			CLAV			STRN			RBAK			LSHO			LUPA			LELB			LFRM			LWRA			LWRB			LFIN			RSHO			RUPA			RELB			RFRM			RWRA			RWRB			RFIN			LASI			RASI			LPSI			RPSI			LTHI			LKNE			LTIB			LANK			LHEE			LTOE			RTHI			RKNE			RTIB			RANK			RHEE			RTOE			*39			*40			*41			*42			
		X1	Y1	Z1	X2	Y2	Z2	X3	Y3	Z3	X4	Y4	Z4	X5	Y5	Z5	X6	Y6	Z6	X7	Y7	Z7	X8	Y8	Z8	X9	Y9	Z9	X10	Y10	Z10	X11	Y11	Z11	X12	Y12	Z12	X13	Y13	Z13	X14	Y14	Z14	X15	Y15	Z15	X16	Y16	Z16	X17	Y17	Z17	X18	Y18	Z18	X19	Y19	Z19	X20	Y20	Z20	X21	Y21	Z21	X22	Y22	Z22	X23	Y23	Z23	X24	Y24	Z24	X25	Y25	Z25	X26	Y26	Z26	X27	Y27	Z27	X28	Y28	Z28	X29	Y29	Z29	X30	Y30	Z30	X31	Y31	Z31	X32	Y32	Z32	X33	Y33	Z33	X34	Y34	Z34	X35	Y35	Z35	X36	Y36	Z36	X37	Y37	Z37	X38	Y38	Z38	X39	Y39	Z39	X40	Y40	Z40	X41	Y41	Z41	X42	Y42	Z42	X43	Y43	Z43	

1	0.000	1507.89392	1098.40234	1672.90405	1399.87354	1064.64270	1683.13806	1477.05908	1204.70850	1614.83325	1361.76819	1172.81360	1624.36548	1429.36072	1220.20276	1426.90588	1407.79419	1237.87134	1133.27393	1448.34277	1074.58752	1367.77759	1454.50500	1021.55225	1216.10144	1339.90674	1252.97559	1232.05444	1600.85828	1158.91565	1386.30884	1670.89771	1201.09644	1196.66309	1660.27332	1221.41064	1049.01123	1683.48792	1198.14514	938.01788	1663.81140	1134.71252	813.54089	1687.41565	1190.91870	816.06647	1691.53516	1154.24927	737.87793	1289.19275	1117.99536	1396.56506	1178.49719	1139.11755	1193.02136	1173.66418	1121.14160	1068.19714	1153.67273	1060.07654	960.97528	1192.30652	956.02069	871.25391	1146.36353	990.51953	859.72900	1158.93701	933.93768	796.59845	1529.41809	1067.89380	934.52496	1314.08057	1049.60608	928.41711	1465.15454	1251.40979	944.92999	1321.00391	1236.21228	947.60687	1594.23315	1038.88184	616.67706	1579.19250	1019.42297	484.24368	1598.24463	1041.63147	295.84381	1553.28235	1031.58521	74.65152	1497.22522	1069.75940	43.22389	1562.82849	883.58588	44.42275	1256.76721	1143.93567	599.78870	1277.38831	1171.21509	440.00430	1253.84668	1292.19043	311.66998	1282.96802	1411.37866	135.22319	1322.28589	1477.64246	123.42207	1316.15356	1306.04126	40.89497	1419.46704	1084.65002	1714.38367	-3101.96875	1973.15076	1023.40204	-3140.64526	2012.51978	1022.07001			 
2	0.010	1511.19641	1091.83740	1674.01721	1403.21082	1058.24084	1684.34241	1480.50452	1198.16052	1615.90942	1365.36267	1166.62109	1625.64954	1432.78967	1213.30164	1427.80237	1410.91089	1230.62939	1134.26709	1451.43213	1067.61279	1369.04504	1457.42578	1014.30353	1217.36475	1342.95325	1246.10840	1233.16199	1604.13818	1151.64539	1387.31506	1674.17725	1192.44324	1197.43384	1663.92773	1211.83923	1049.76440	1687.46216	1187.88721	939.10510	1668.00317	1123.66797	814.82391	1691.30286	1179.74597	816.97040	1695.85059	1142.65845	739.07422	1292.55884	1111.64807	1397.87720	1181.54187	1134.07776	1194.40186	1176.75952	1116.27258	1069.60266	1156.31274	1056.18774	961.84473	1194.08081	952.90314	870.94678	1148.20813	987.88879	859.94904	1160.34460	931.78088	796.18280	1532.50732	1060.57886	935.53027	1317.32825	1042.38550	929.78229	1467.92322	1244.09119	946.13800	1323.84619	1228.68188	949.07367	1596.85071	1032.45569	617.46399	1580.99512	1014.72870	484.16034	1599.30994	1038.22656	295.79367	1553.27100	1031.14514	74.71513	1497.36902	1069.60864	43.31559	1562.69214	883.06390	43.43732	1259.24756	1132.99255	600.05463	1278.55627	1158.91162	440.37302	1255.62280	1283.74719	315.39520	1283.95679	1406.39575	140.99022	1324.69165	1471.80493	131.39578	1315.94885	1305.05591	40.68502	1422.83032	1078.15588	1715.62317	-3101.97046	1973.16748	1023.42334	-3140.81348	2012.53076	1021.98962			 
3	0.020	1514.46729	1085.21240	1675.03113	1406.51282	1051.92676	1685.52344	1483.96545	1191.59534	1616.96643	1368.67395	1160.23145	1626.85388	1436.29932	1206.39258	1428.73303	1414.10779	1223.55847	1135.30212	1454.43555	1060.69836	1370.23413	1460.34839	1007.24213	1218.62231	1345.91785	1239.20142	1234.31445	1607.36292	1144.33594	1388.33740	1677.78931	1183.90198	1198.52698	1667.59155	1202.28357	1050.61975	1691.33044	1177.57971	940.19208	1672.33984	1112.47180	816.33868	1695.52881	1168.51123	818.12518	1700.34521	1130.99023	740.49286	1295.73828	1105.05273	1399.09338	1184.68774	1128.81946	1195.88074	1179.96912	1111.46167	1071.03662	1158.99939	1052.43530	962.79266	1195.88208	949.88788	870.76703	1150.10205	985.32880	860.26733	1161.99353	929.67487	795.93408	1535.88525	1053.43457	936.58258	1320.66919	1035.38745	931.21570	1470.80603	1236.82153	947.15228	1326.73816	1221.29260	950.60126	1599.05627	1027.59448	617.49872	1582.73401	1010.44080	484.05112	1599.83130	1034.98315	295.64539	1553.20581	1030.70166	74.76410	1497.41235	1069.49072	43.41848	1562.33826	882.27625	42.83002	1261.54944	1121.80786	600.64349	1279.56018	1145.97485	440.63293	1257.03345	1274.03198	318.66849	1285.28870	1400.60461	146.88741	1327.41089	1464.82263	139.58665	1316.39600	1304.01172	40.73115	1426.17993	1071.69873	1716.85767	-3101.93506	1973.14612	1023.67639	-3140.72974	2012.42859	1021.95331			 
4	0.030	1517.75452	1078.59888	1675.99402	1409.63611	1045.41858	1686.60193	1487.33801	1184.98914	1617.89709	1372.25684	1154.07471	1627.88623	1439.66687	1199.55774	1429.53821	1417.35669	1216.57056	1136.29773	1457.49487	1053.83569	1371.36963	1463.16443	1000.21320	1219.73267	1348.85925	1232.30518	1235.41150	1610.50916	1136.97156	1389.36487	1680.98743	1175.41406	1199.40515	1671.29419	1192.73987	1051.53345	1695.28467	1167.23901	941.34564	1676.65479	1101.08533	817.89417	1699.93628	1157.36462	819.54602	1705.06982	1119.09937	742.06244	1298.95154	1098.60315	1400.33582	1187.40747	1123.51379	1197.46033	1183.02905	1106.84875	1072.43335	1161.38281	1048.87952	963.63440	1197.75427	946.94873	870.56830	1152.23755	982.29218	860.44940	1163.53296	927.64142	795.52118	1539.27222	1046.42212	937.29132	1324.23621	1028.85730	932.48114	1473.93933	1230.04138	948.09277	1329.75830	1214.07410	952.10217	1601.35474	1023.62292	617.17334	1584.26733	1006.31012	483.82642	1600.28967	1032.16296	295.52744	1553.14392	1030.37598	74.87201	1497.39063	1069.41772	43.53505	1562.29504	881.78522	42.39861	1263.59583	1109.74133	600.83228	1280.55957	1132.48169	440.90787	1258.71887	1263.99585	322.35217	1286.86597	1393.66748	152.83771	1330.30103	1456.92944	147.95941	1317.18079	1302.76831	40.99606	1429.47620	1065.25525	1717.96960	-3102.07373	1973.13623	1023.58276	-3140.65234	2012.48999	1022.03235			 
5	0.040	1520.90698	1071.93591	1676.80664	1412.73755	1039.13062	1687.60815	1490.63916	1178.36169	1618.73853	1375.29541	1147.41797	1628.86438	1443.03394	1192.79688	1430.28320	1420.73999	1209.71082	1137.21667	1460.41589	1046.94739	1372.36133	1466.02991	993.30939	1220.78125	1351.77295	1225.48779	1236.42786	1613.58423	1129.58301	1390.36182	1684.53040	1166.99756	1200.50085	1675.04175	1183.22339	1052.47302	1699.25403	1156.84351	942.48633	1681.16357	1089.49634	819.60626	1704.19800	1145.93774	820.84888	1709.82727	1106.94287	743.72253	1302.08362	1091.89795	1401.38538	1190.19653	1117.95520	1198.96667	1186.03589	1102.20642	1073.75659	1163.88159	1045.35913	964.53510	1199.53015	944.03961	870.36316	1154.41931	979.57391	860.84027	1165.21118	925.58234	794.94720	1542.80750	1039.49255	938.04285	1327.64941	1021.79041	934.00482	1476.86951	1222.61633	948.86761	1332.76904	1207.08801	953.49774	1603.28601	1020.30774	616.25244	1585.68835	1002.45453	483.39340	1600.61365	1029.85327	295.12903	1552.88037	1029.92676	74.80002	1497.30115	1069.33435	43.65033	1562.34717	881.47418	41.74464	1265.29993	1097.83289	601.14203	1281.77319	1118.68066	441.20068	1260.50330	1253.13550	325.90619	1288.52429	1385.69958	158.62627	1333.13062	1448.01111	156.32079	1317.53552	1301.76575	41.57305	1432.68152	1058.83179	1718.91663	-3101.89185	1973.15820	1023.51874	-3140.80078	2012.60864	1022.20355			 
